<svg width="32" height="32" viewBox="0 0 32 32" fill="none" xmlns="http://www.w3.org/2000/svg">
<g clip-path="url(#clip0_1_2)">
<rect width="32" height="32" rx="6" fill="url(#paint0_linear_1_2)"/>
<rect x="0.75" y="0.75" width="30.5" height="30.5" rx="5.25" stroke="url(#paint1_linear_1_2)" stroke-opacity="0.4" stroke-width="1.5"/>
<path d="M8 16H11C11.5304 16 12.0391 16.2107 12.4142 16.5858C12.7893 16.9609 13 17.4696 13 18V23C13 23.5304 12.7893 24.0391 12.4142 24.4142C12.0391 24.7893 11.5304 25 11 25H8C7.46957 25 6.96086 24.7893 6.58579 24.4142C6.21071 24.0391 6 23.5304 6 23V16C6 10.477 10.477 6 16 6C21.523 6 26 10.477 26 16V23C26 23.5304 25.7893 24.0391 25.4142 24.4142C25.0391 24.7893 24.5304 25 24 25H21C20.4696 25 19.9609 24.7893 19.5858 24.4142C19.2107 24.0391 19 23.5304 19 23V18C19 17.4696 19.2107 16.9609 19.5858 16.5858C19.9609 16.2107 20.4696 16 21 16H24C24 13.8783 23.1571 11.8434 21.6569 10.3431C20.1566 8.84285 18.1217 8 16 8C13.8783 8 11.8434 8.84285 10.3431 10.3431C8.84285 11.8434 8 13.8783 8 16Z" fill="url(#paint2_linear_1_2)"/>
</g>
<defs>
<linearGradient id="paint0_linear_1_2" x1="16" y1="0" x2="16" y2="32" gradientUnits="userSpaceOnUse">
<stop/>
<stop offset="1" stop-color="#251B29"/>
</linearGradient>
<linearGradient id="paint1_linear_1_2" x1="16" y1="0" x2="16" y2="32" gradientUnits="userSpaceOnUse">
<stop stop-color="#EABCFF"/>
<stop offset="0.0001" stop-color="#EABCFF"/>
<stop offset="1" stop-color="#9100D6"/>
</linearGradient>
<linearGradient id="paint2_linear_1_2" x1="16" y1="6" x2="16" y2="39" gradientUnits="userSpaceOnUse">
<stop stop-color="#F6E3FF"/>
<stop offset="1" stop-color="#3B2944"/>
</linearGradient>
<clipPath id="clip0_1_2">
<rect width="32" height="32" fill="white"/>
</clipPath>
</defs>
</svg>
